<svg xmlns="http://www.w3.org/2000/svg" xmlns:cc="http://creativecommons.org/ns#" xmlns:dc="http://purl.org/dc/elements/1.1/" xmlns:rdf="http://www.w3.org/1999/02/22-rdf-syntax-ns#" xmlns:svg="http://www.w3.org/2000/svg" height="350" version="1.1" width="350" xml:space="preserve"><rect id="backgroundrect" width="100%" height="100%" x="0" y="0" fill="none" stroke="none" class="" style=""/>
  <title id="title3510">Official PHP Logo</title>
  <metadata id="metadata3436">
    <rdf:RDF>
      <cc:Work rdf:about="">
        <dc:format>image/svg+xml</dc:format>
        <dc:type rdf:resource="http://purl.org/dc/dcmitype/StillImage"/>
        <dc:title>Official PHP Logo</dc:title>
        <dc:creator>
          <cc:Agent>
            <dc:title>Colin Viebrock</dc:title>
          </cc:Agent>
        </dc:creator>
        <dc:description/>
        <dc:contributor>
          <cc:Agent>
            <dc:title/>
          </cc:Agent>
        </dc:contributor>
        <cc:license rdf:resource="http://creativecommons.org/licenses/by-sa/3.0/"/>
        <dc:rights>
          <cc:Agent>
            <dc:title>Copyright Colin Viebrock 1997 - All rights reserved.</dc:title>
          </cc:Agent>
        </dc:rights>
        <dc:date>1997</dc:date>
      </cc:Work>
      <cc:License rdf:about="http://creativecommons.org/licenses/by-sa/3.0/">
        <cc:permits rdf:resource="http://creativecommons.org/ns#Reproduction"/>
        <cc:permits rdf:resource="http://creativecommons.org/ns#Distribution"/>
        <cc:requires rdf:resource="http://creativecommons.org/ns#Notice"/>
        <cc:requires rdf:resource="http://creativecommons.org/ns#Attribution"/>
        <cc:permits rdf:resource="http://creativecommons.org/ns#DerivativeWorks"/>
        <cc:requires rdf:resource="http://creativecommons.org/ns#ShareAlike"/>
      </cc:License>
    </rdf:RDF>
  </metadata>
  <defs id="defs3434">
    <clipPath clipPathUnits="userSpaceOnUse" id="clipPath3444">
      <path d="M 11.52,162 C 11.52,81.677 135.307,16.561 288,16.561 l 0,0 c 152.693,0 276.481,65.116 276.481,145.439 l 0,0 c 0,80.322 -123.788,145.439 -276.481,145.439 l 0,0 C 135.307,307.439 11.52,242.322 11.52,162" id="path3446"/>
    </clipPath>
    <radialGradient cx="0" cy="0" fx="0" fy="0" gradientTransform="matrix(363.05789,0,0,-363.05789,177.52002,256.30713)" gradientUnits="userSpaceOnUse" id="radialGradient3452" r="1" spreadMethod="pad">
      <stop id="stop3454" offset="0" style="stop-opacity:1;stop-color:#aeb2d5"/>
      <stop id="stop3456" offset="0.3" style="stop-opacity:1;stop-color:#aeb2d5"/>
      <stop id="stop3458" offset="0.75" style="stop-opacity:1;stop-color:#484c89"/>
      <stop id="stop3460" offset="1" style="stop-opacity:1;stop-color:#484c89"/>
    </radialGradient>
    <clipPath clipPathUnits="userSpaceOnUse" id="clipPath3468">
      <path d="M 0,324 576,324 576,0 0,0 0,324 Z" id="path3470"/>
    </clipPath>
    <clipPath clipPathUnits="userSpaceOnUse" id="clipPath3480">
      <path d="M 0,324 576,324 576,0 0,0 0,324 Z" id="path3482"/>
    </clipPath>
  </defs>
  
<g class="currentLayer" style=""><title>Layer 1</title><g id="g3438" class="selected">
    <g id="g3440" stroke-width="0">
      <g clip-path="url(#clipPath3444)" id="g3442" stroke-width="0">
        <g id="g3448" stroke-width="0">
          <g id="g3450" stroke-width="0">
            <path d="M9.999994423907323,172.15399893862755 C9.999994423907323,261.7083527003241 82.97542325794431,334.3079978772551 172.99163784393167,334.3079978772551 l0,0 c90.01621458598731,0 162.99223294419753,-72.59964517693103 162.99223294419753,-162.15399893862755 l0,0 c0,-89.55323883379592 -72.97601835821025,-162.15399893862755 -162.99223294419753,-162.15399893862755 l0,0 C82.97542325794431,9.999999999999948 9.999994423907323,82.6007601048316 9.999994423907323,172.15399893862755 " id="path3462" style="fill:url(#radialGradient3452);stroke:none" stroke-width="0"/>
          </g>
        </g>
      </g>
    </g>
    <g id="g3464" stroke-width="0">
      <g clip-path="url(#clipPath3468)" id="g3466" stroke-width="0">
        <g id="g3472" stroke-width="0">
          <path d="M172.99163784393167,322.2685606631406 C259.4919302606589,322.2685606631406 329.6164201928613,255.05959188571904 329.6164201928613,172.15355319543414 C329.6164201928613,89.24862943304987 259.4919302606589,22.03854572772774 172.99163784393167,22.03854572772774 C86.4913454272044,22.03854572772774 16.366855495002024,89.24862943304987 16.366855495002024,172.15355319543414 C16.366855495002024,255.05959188571904 86.4913454272044,322.2685606631406 172.99163784393167,322.2685606631406 " id="path3474" style="fill:#777bb3;fill-opacity:1;fill-rule:nonzero;stroke:none" stroke-width="0"/>
        </g>
      </g>
    </g>
    <g id="g3476" stroke-width="0">
      <g clip-path="url(#clipPath3480)" id="g3478" stroke-width="0">
        <g id="g3484" stroke-width="0">
          <path d="m98.5550176468241,190.76594209828122 c7.112609150255328,0 12.422453378713657,-2.4807145788849367 15.782151642062614,-7.370788351014976 c3.323737288780733,-4.839902016602029 5.619344419414322,-13.225274757183426 6.8225632570165695,-24.92198336261348 c1.121864501693816,-10.932982993503682 0.6944594760879219,-18.56689432906555 -1.2698350691794424,-22.68655292186548 C117.88138861846275,131.5788795658382 113.53895355830684,129.44490756404687 106.98344475177231,129.44490756404687 L95.61682916734851,129.44490756404687 L89.31540527948454,190.76594209828122 L98.5550176468241,190.76594209828122 zm-37.177162937633796,75.53636526717054 c-0.5276241350583113,0 -1.0287196823203941,-0.44597116024897787 -1.3641589368993645,-1.2175012674797088 c-0.3360287787522205,-0.7704151793301091 -0.4722088627728571,-1.7849995688965319 -0.3714002291471912,-2.7650211935436606 L76.34233632295583,99.81792846080668 C76.50386594642619,98.24699504882965 77.23192830038933,97.11199844599601 78.07848501317562,97.11199844599601 L114.07129388675116,97.11199844599601 C125.38308372306277,97.11199844599601 133.80266796541224,102.92077280823891 139.0948264686731,114.37888684293578 C144.41528213224993,125.89720698426625 146.0582860030963,141.99788079715498 143.9778551956988,162.23270726555168 C143.13129848291248,170.47648416275408 141.67517377498618,178.13269405632838 139.65015823987412,184.9872707893552 C137.62278460806905,191.84965201768625 134.94339724065006,198.1991664117311 131.6850971351,203.8630001468931 C127.78480520488125,210.76663370754727 123.37044819558895,215.77265998134206 118.57643761872392,218.71829949478655 C113.8584756602081,221.62491653170926 107.79934620754965,223.09885121633212 100.56765317429792,223.09885121633212 l-14.574216611074368,0 l-4.1620406631415365,40.49641120640841 c-0.16152962347036576,1.5720483398776457 -0.8890024532602603,2.7070449427112933 -1.7355591660465555,2.7070449427112933 l-18.717982024845167,0 z" id="path3486" style="fill:#000000;fill-opacity:1;fill-rule:nonzero;stroke:none" stroke-width="0"/>
        </g>
        <g id="g3488" stroke-width="0">
          <path d="m97.07483845279545,132.78912985507557 l9.90872230397775,0 c7.912003929181662,0 10.660365624870876,3.2834626673330964 11.5941719152981,5.240161132925486 c1.5492695272997108,3.248899902413801 1.8416735172314669,10.099016923838095 0.8459671886130457,19.808924010358954 C118.3047829798568,168.70876202942884 116.23083693836503,176.4162586064318 113.258456056841,180.7444087166481 C110.215332274527,185.17513219372168 105.26804541261713,187.4205969855753 98.55513365182499,187.4205969855753 L91.46079975094037,187.4205969855753 L97.07483845279545,132.78912985507557 zm16.9965714389566,-39.02247652178553 l-35.993398397748784,0 c-1.6931134255725906,0 -3.148648609325629,2.269993205667296 -3.47170785626636,5.412974957521964 l-16.700040779812095,162.50185644362176 c-0.20161726725133233,1.9611581771948794 0.07074290078994118,3.989212028427104 0.7422109341211323,5.531157314987943 c0.6720575575044409,1.54194528656084 1.6730696036821076,2.4338876070587947 2.7294969221452274,2.4338876070587947 l18.717392500671917,0 c1.6937029497458407,0 3.1492381334988777,-2.269993205667296 3.4722973804396102,-5.412974957521964 l3.883785253367768,-37.790481191597735 l13.11632333062833,0 c7.417393147825326,0 13.661633190884126,-1.5296810796539928 18.5576314497213,-4.545561050837702 c5.035125963724059,-3.0939249242272817 9.667606917118702,-8.33966069665588 13.767747542069037,-15.59115176230425 c3.3909430445311775,-5.900198450093971 6.184108577387354,-12.522870179791283 8.30050035935309,-19.686281941290485 c2.116981306138988,-7.1656416173004445 3.6379536731227224,-15.156329881061499 4.520471360477238,-23.750194139059293 c2.1900823036219266,-21.299582613491157 0.41089834875490855,-38.3557496372133 -5.287442309874849,-50.69131192970003 C134.7837521947003,99.96119274914834 125.91612958068119,93.76665333329005 114.07140989175204,93.76665333329005 m-26.901756597894863,100.34351105601992 l11.385480357967772,0 c7.546498941766968,0 13.167611933701036,-2.6880911684007116 16.860980879109214,-8.06538843310276 c3.6939584695814247,-5.378412192602667 6.185287625733853,-14.354696720513962 7.4798827101897745,-26.93331329533637 c1.238590287997219,-12.076899019542308 0.6744156541974388,-20.59940789190027 -1.6925239013993414,-25.564181833372007 C118.83358616326159,128.58250688602706 114.09440133450879,126.09956245134089 106.9835607567732,126.09956245134089 L94.15905189190337,126.09956245134089 L87.16965329385721,194.11016438930994 M114.07140989175204,100.4562207370247 C124.89920038182579,100.4562207370247 132.79823477919598,105.83017321802488 137.7632073663033,116.57919310792586 C142.72759042923744,127.32821299782682 144.2226237325982,142.33179775650305 142.2418225104799,161.59440709555702 C141.42651057887576,169.52934896428695 140.04761353764516,176.78418481363718 138.10631043513453,183.35668478780653 C136.1626492359309,189.93364447357825 133.62474767009178,195.94756556953573 130.4884790684044,201.4006779314801 C126.75089581000252,208.01554516587305 122.5988770578062,212.72946032970478 118.03006471512252,215.5368487834721 C113.46125237243882,218.3520417325437 107.64205925829292,219.75350610362614 100.56776917929879,219.75350610362614 l-16.032699415693656,0 l-4.439706548742055,43.20345614911969 l-18.717392500671917,0 l16.700040779812095,-162.50074151572116 l35.993398397748784,0 " id="path3490" style="fill:#ffffff;fill-opacity:1;fill-rule:nonzero;stroke:none" stroke-width="0"/>
        </g>
        <g id="g3492" stroke-width="0">
          <path d="m186.89439102733246,223.0988427101073 c-0.5282136592315607,0 -1.0287196823203941,-0.44597116024897787 -1.3641589368993645,-1.2175012674797088 c-0.33661830292546996,-0.7704151793301091 -0.47279838694610654,-1.7838846409959097 -0.37198975332044076,-2.7650211935436606 L192.5455697521022,147.21573486584316 C193.24828256661564,140.3778820513257 193.07496245968034,135.46996943278572 192.0580332608249,133.396203537628 C191.43549573387338,132.12853051462025 189.56552505632595,130.00236300813327 184.0363778354188,130.00236300813327 L170.65300005430848,130.00236300813327 L161.36504670476242,220.39179776739599 C161.2035170812921,221.96384610727364 160.4754547273289,223.0988427101073 159.6288980145426,223.0988427101073 l-18.57001145735954,0 c-0.5282136592315607,0 -1.0287196823203941,-0.44597116024897787 -1.3647484610726142,-1.2175012674797088 c-0.3360287787522205,-0.7704151793301091 -0.4722088627728571,-1.7849995688965319 -0.3714002291471912,-2.7650211935436606 l16.700040779812095,-162.50185644362176 c0.16152962347036576,-1.5709334119770237 0.8895919774335097,-2.7059300148106704 1.736148690219805,-2.7059300148106704 l18.57001145735954,0 c0.5282136592315607,0 1.0287196823203941,0.44597116024897787 1.3647484610726142,1.2163863395790864 c0.3360287787522205,0.7715301072307319 0.4722088627728571,1.7849995688965319 0.3714002291471912,2.7661361214442826 L174.03510023624088,97.11198993977118 L188.43245959534045,97.11198993977118 c10.968097243307122,0 18.40553421302293,3.6569635140416152 22.737357838060326,11.180496987441865 c4.415536057638826,7.6751636678849025 5.793254050522926,19.947175070036142 4.09542443156434,36.47932598046573 L207.49531326153655,220.39179776739599 C207.3337836380662,221.96384610727364 206.60631080827622,223.0988427101073 205.75916457131675,223.0988427101073 L186.89439102733246,223.0988427101073 z" id="path3494" style="fill:#000000;fill-opacity:1;fill-rule:nonzero;stroke:none" stroke-width="0"/>
        </g>
        <g id="g3496" stroke-width="0">
          <path d="m176.32899449402638,50.56319718417035 l-18.57001145735954,0 c-1.6937029497458407,0 -3.1492381334988777,2.269993205667296 -3.4722973804396102,5.412974957521964 l-16.700040779812095,162.50185644362176 c-0.20161726725133233,1.9611581771948794 0.07074290078994118,3.989212028427104 0.7428004582943821,5.531157314987943 c0.6720575575044409,1.54194528656084 1.6730696036821076,2.4338876070587947 2.7294969221452274,2.4338876070587947 l18.57001145735954,0 c1.6931134255725906,0 3.1492381334988777,-2.269993205667296 3.4722973804396102,-5.412974957521964 l9.009697939772249,-87.68350474445207 l11.925484500664322,0 c5.519714834135154,0 6.678129834570441,2.229855801244887 6.724702244257152,2.3257396006984177 c0.33484973040572164,0.6812209472803133 0.7752242878231047,3.8364669060418284 0.04834098220645981,10.905109795988123 l-7.3873274149896,71.90058538324077 c-0.20161726725133233,1.9611581771948794 0.07074290078994118,3.989212028427104 0.7428004582943821,5.531157314987943 c0.6720575575044409,1.54194528656084 1.6730696036821076,2.4338876070587947 2.7294969221452274,2.4338876070587947 l18.864773543984295,0 c1.6931134255725906,0 3.1492381334988777,-2.269993205667296 3.4722973804396102,-5.412974957521964 l7.769339079255282,-75.61998485971723 c1.8233982678607326,-17.750767105809924 0.26351730544253094,-31.066351022943763 -4.6342495259143925,-39.57994047209675 c-4.67374764552211,-8.117790044432013 -12.502628666275593,-12.06351988473484 -23.934091909756823,-12.06351988473484 l-12.252670416817798,0 l3.621446996271735,-35.23729629917233 C180.00231961754406,56.56819885692284 179.730548973676,54.539030077789974 179.05849141617162,52.99819971912977 C178.38643385866717,51.456254432568926 177.38542181248948,50.56319718417035 176.32899449402638,50.56319718417035 m0,6.689567403734661 l-4.439706548742055,43.20345614911969 l16.543227349727726,0 c10.409228327066582,0 17.58904323307236,3.4362077897183716 21.540623766363815,10.299703945950135 c3.9515805332914606,6.867955867834254 5.135345073176474,17.99605124394686 3.5560098130410407,33.37871148883472 l-7.769928603428534,75.6188699318166 l-18.864773543984295,0 l7.3873274149896,-71.89947045534015 c0.8406614710538006,-8.179111078966246 0.5317508042710577,-13.758210293680953 -0.9279110486947274,-16.73283793254163 c-1.4602513771390344,-2.9746276388606794 -4.5664542459907,-4.464171314092264 -9.317429558208495,-4.464171314092264 l-14.841860585729643,0 l-9.565619235146537,93.09647970197403 l-18.57001145735954,0 L157.75898303666682,57.252764587905006 L176.32899449402638,57.252764587905006 " id="path3498" style="fill:#ffffff;fill-opacity:1;fill-rule:nonzero;stroke:none" stroke-width="0"/>
        </g>
        <g id="g3500" stroke-width="0">
          <path d="m244.6481859609694,190.76594209828122 c7.112609150255328,0 12.422453378713657,-2.4807145788849367 15.782151642062614,-7.370788351014976 c3.323737288780733,-4.838787088701404 5.619344419414322,-13.224159829282806 6.823152781189821,-24.92198336261348 c1.121864501693816,-10.932982993503682 0.6944594760879219,-18.56689432906555 -1.2704245933526928,-22.68655292186548 C263.9745569326081,131.5788795658382 259.63212187245216,129.44490756404687 253.07661306591766,129.44490756404687 L241.70999748149382,129.44490756404687 L235.40857359362982,190.76594209828122 L244.6481859609694,190.76594209828122 zm-37.17657341346055,75.53636526717054 c-0.5276241350583113,0 -1.0287196823203941,-0.44597116024897787 -1.3641589368993645,-1.2175012674797088 c-0.3360287787522205,-0.7704151793301091 -0.47279838694610654,-1.7849995688965319 -0.37198975332044076,-2.7650211935436606 L222.43550463710116,99.81792846080668 C222.59762378474477,98.24699504882965 223.32509661453466,97.11199844599601 224.1722428514942,97.11199844599601 L260.1644622008965,97.11199844599601 C271.4768415613813,97.11199844599601 279.89583627955756,102.92077280823891 285.18858430699163,114.37888684293578 C290.5090399705685,125.89609205636562 292.15145431724164,141.99676586925432 290.0716130340174,162.23270726555168 C289.2238772728846,170.47648416275408 287.7683420891315,178.13269405632838 285.7433265540194,184.9872707893552 C283.7159529222144,191.84965201768625 281.0365655547954,198.1991664117311 277.77826544924534,203.8630001468931 C273.8779735190265,210.76663370754727 269.4636165097342,215.77265998134206 264.6696059328692,218.71829949478655 C259.9516439743535,221.62491653170926 253.89251452169498,223.09885121633212 246.66082148844325,223.09885121633212 l-14.574806135247616,0 l-4.1602720906217865,40.49641120640841 c-0.16211914764361515,1.5720483398776457 -0.8895919774335097,2.7070449427112933 -1.7367382143930539,2.7070449427112933 l-18.717392500671917,0 z" id="path3502" style="fill:#000000;fill-opacity:1;fill-rule:nonzero;stroke:none" stroke-width="0"/>
        </g>
        <g id="g3504" stroke-width="0">
          <path d="M243.1680607394908,132.78912985507557 L253.0767830434686,132.78912985507557 C260.98878697265025,132.78912985507557 263.7371486683394,136.07259252240866 264.67095495876663,138.02929098800107 C266.2208140102396,141.27819089041486 266.5132180001714,148.12830791183913 265.5169221473797,157.83710007045937 C264.3980052665521,168.70876202942884 262.32346970088713,176.4162586064318 259.3516783435364,180.7444087166481 C256.3085545612223,185.17513219372168 251.3612676993125,187.4205969855753 244.64835593852033,187.4205969855753 L237.55461156180897,187.4205969855753 L243.1680607394908,132.78912985507557 zm16.9965714389566,-39.02247652178553 l-35.99280887357554,0 c-1.6931134255725906,0 -3.148648609325629,2.269993205667296 -3.47170785626636,5.412974957521964 L204.00007466879342,261.68148473443375 c-0.20161726725133233,1.9611581771948794 0.07074290078994118,3.989212028427104 0.7422109341211323,5.531157314987943 c0.6720575575044409,1.54194528656084 1.6730696036821076,2.4338876070587947 2.7294969221452274,2.4338876070587947 l18.717392500671917,0 c1.6931134255725906,0 3.1492381334988777,-2.269993205667296 3.4722973804396102,-5.412974957521964 l3.8831957291945183,-37.790481191597735 l13.11632333062833,0 c7.417393147825326,0 13.661633190884126,-1.5296810796539928 18.5576314497213,-4.545561050837702 c5.035125963724059,-3.0939249242272817 9.668785965465203,-8.340775624556503 13.76892659041554,-15.593381618105496 c3.3909430445311775,-5.89908352219335 6.182929529040852,-12.520640323990042 8.299321311006592,-19.684052085489242 c2.116981306138988,-7.1656416173004445 3.6379536731227224,-15.156329881061499 4.520471360477238,-23.750194139059293 c2.1900823036219266,-21.300697541391788 0.41089834875490855,-38.35686456511392 -5.287442309874849,-50.692426857600644 C280.87697448139573,99.96119274914834 272.00994139154983,93.76665333329005 260.1646321784474,93.76665333329005 m-26.901167073721606,100.34351105601992 l11.384890833794522,0 c7.546498941766968,0 13.167611933701036,-2.6880911684007116 16.860980879109214,-8.06538843310276 c3.694547993754676,-5.378412192602667 6.185287625733853,-14.354696720513962 7.4798827101897745,-26.93331329533637 c1.2391798121704682,-12.076899019542308 0.6750051783706882,-20.59940789190027 -1.6925239013993414,-25.564181833372007 C264.92680844995704,128.58250688602706 260.1876236212041,126.09956245134089 253.0767830434686,126.09956245134089 L240.25227417859875,126.09956245134089 L233.26346510472584,194.11016438930994 M260.1646321784474,100.4562207370247 C270.99242266852116,100.4562207370247 278.89145706589136,105.83017321802488 283.85642965299866,116.57919310792586 C288.821402240106,127.32821299782682 290.3158460192936,142.33179775650305 288.3350447971752,161.59440709555702 C287.51973286557114,169.52934896428695 286.1408358243405,176.78418481363718 284.19953272182994,183.35668478780653 C282.2558715226263,189.93364447357825 279.71796995678716,195.94756556953573 276.5817013550998,201.4006779314801 C272.8441180966979,208.01554516587305 268.69209934450157,212.72946032970478 264.12328700181786,215.5368487834721 C259.5544746591342,218.3520417325437 253.73528154498828,219.75350610362614 246.66099146599413,219.75350610362614 l-16.032699415693656,0 l-4.439117024568804,43.20345614911969 l-18.717392500671917,0 l16.700040779812095,-162.50074151572116 l35.99280887357554,0 " id="path3506" style="fill:#ffffff;fill-opacity:1;fill-rule:nonzero;stroke:none" stroke-width="0"/>
        </g>
      </g>
    </g>
  </g></g></svg>